<?xml version="1.0"?><svg xmlns="http://www.w3.org/2000/svg" id="Bahan" viewBox="0 0 64 64"><title/><path d="M52.39,22.08C52.39,12.09,43.24,4,32,4,16.34,3.7,5.66,20.15,15.2,32.35l16.18,27.2a1,1,0,0,0,1.72,0L48.6,32.6A16.75,16.75,0,0,0,52.39,22.08Zm-20.17,35L14.76,27.69a14.22,14.22,0,0,1-1.15-5.61C13.61,13.19,21.86,6,32,6s18.39,7.23,18.39,16.12a14,14,0,0,1-.91,5Z"/><path d="M42.08,10H39a1,1,0,0,0-1,1V21.76H19.27a1,1,0,0,0-1,1v9.32a1,1,0,0,0,1,1h3a1,1,0,0,0,1-1V27H38V32a1,1,0,0,0,1,1h3.12a1,1,0,0,0,1-1V11A1,1,0,0,0,42.08,10Zm-1,21H40V26a1,1,0,0,0-1-1H22.25a1,1,0,0,0-1,1v5.13h-1V23.76H39a1,1,0,0,0,1-1V12h1.12Z"/><path d="M33.6,20a2.3,2.3,0,0,0,2.3-4A2.3,2.3,0,0,0,33.6,20Zm.89-2.15c.2-.34.71,0,.52.31S34.29,18.21,34.49,17.88Z"/><path d="M19.94,20.89h9.43A1.67,1.67,0,0,0,31,19.22V16.85a1.67,1.67,0,0,0-1.67-1.67H21.59a3.32,3.32,0,0,0-3.32,3.32v.72A1.67,1.67,0,0,0,19.94,20.89Zm.33-2.39a1.32,1.32,0,0,1,1.32-1.32H29v1.71H20.27Z"/></svg>