<?xml version="1.0"?><svg id="Icons" viewBox="0 0 24 24" xmlns="http://www.w3.org/2000/svg"><defs><style>.cls-1{fill:#232323;}</style></defs><path class="cls-1" d="M12,6a1,1,0,0,1-1-1V1a1,1,0,0,1,2,0V5A1,1,0,0,1,12,6Z"/><path class="cls-1" d="M5,13H1a1,1,0,0,1,0-2H5a1,1,0,0,1,0,2Z"/><path class="cls-1" d="M12,24a1,1,0,0,1-1-1V19a1,1,0,0,1,2,0v4A1,1,0,0,1,12,24Z"/><path class="cls-1" d="M23,13H19a1,1,0,0,1,0-2h4a1,1,0,0,1,0,2Z"/><path class="cls-1" d="M16,12a3.009,3.009,0,0,1,3-3h1.48A8.968,8.968,0,0,0,15,3.52V5A3,3,0,0,1,9,5V3.52A8.968,8.968,0,0,0,3.52,9H5a3,3,0,0,1,0,6H3.52A8.968,8.968,0,0,0,9,20.48V19a3,3,0,0,1,6,0v1.48A8.968,8.968,0,0,0,20.48,15H19A3.009,3.009,0,0,1,16,12Zm-4,2a2,2,0,1,1,2-2A2.006,2.006,0,0,1,12,14Z"/></svg>