<?xml version="1.0"?><svg id="icon" style="enable-background:new 0 0 512 512;" version="1.1" viewBox="0 0 512 512" xml:space="preserve" xmlns="http://www.w3.org/2000/svg" xmlns:xlink="http://www.w3.org/1999/xlink"><path d="M446.3565369,203.135498L308.8643494,65.6433105c-2.734375-2.7324219-7.1660156-2.7324219-9.9003906,0  L92.4161072,272.1911621c-0.0310059,0.0310059-0.0568848,0.0649414-0.0871582,0.0964355  c-0.0710449,0.0734863-0.1374512,0.1506348-0.2053223,0.2272949c-0.0842285,0.0952148-0.1694336,0.1901855-0.2475586,0.2890625  c-0.0644531,0.0810547-0.1235352,0.166748-0.1845703,0.2509766c-0.0734863,0.1020508-0.1481934,0.2028809-0.2155762,0.3078613  c-0.0549316,0.0854492-0.104248,0.1750488-0.1555176,0.2631836c-0.0639648,0.1098633-0.1293945,0.2189941-0.1867676,0.331543  c-0.0449219,0.0878906-0.0837402,0.1794434-0.125,0.2692871c-0.0544434,0.1191406-0.1101074,0.237793-0.1574707,0.3591309  c-0.0344238,0.0876465-0.0627441,0.1782227-0.09375,0.2675781c-0.0446777,0.1293945-0.0893555,0.2585449-0.1262207,0.3898926  c-0.0249023,0.0883789-0.0441895,0.1791992-0.0656738,0.2692871c-0.0324707,0.1362305-0.064209,0.2722168-0.0883789,0.409668  c-0.0056152,0.0314941-0.0148926,0.0612793-0.0200195,0.0930176L63.6846619,440.2800293  c-0.3623047,2.2226563,0.3671875,4.4833984,1.9589844,6.0761719c1.3242188,1.3232422,3.1083984,2.0498047,4.9501953,2.0498047  c0.3740234,0,0.7509766-0.0302734,1.1259766-0.0908203l164.2646484-26.7724609  c0.0332031-0.0053711,0.0644531-0.0151367,0.0976563-0.0209961c0.1313477-0.0231934,0.2614746-0.0537109,0.3916016-0.0844727  c0.0961914-0.0227051,0.1933594-0.043457,0.2878418-0.0700684c0.1228027-0.034668,0.2438965-0.0769043,0.3649902-0.1184082  c0.0983887-0.0334473,0.1977539-0.0649414,0.2939453-0.1025391c0.1098633-0.0432129,0.217041-0.09375,0.3251953-0.1425781  c0.1020508-0.0463867,0.2055664-0.0905762,0.3046875-0.1416016c0.097168-0.0498047,0.1914063-0.1064453,0.2866211-0.1611328  c0.1049805-0.0600586,0.2106934-0.1188965,0.3117676-0.184082c0.0859375-0.0556641,0.1687012-0.1171875,0.2526855-0.1767578  c0.1047363-0.0744629,0.2097168-0.1481934,0.3100586-0.2280273c0.0786133-0.0625,0.1538086-0.1306152,0.2302246-0.1970215  c0.0981445-0.0852051,0.1960449-0.1706543,0.2890625-0.2609863c0.0253906-0.0244141,0.0529785-0.0454102,0.0778809-0.0703125  l206.5478516-206.5478516C449.0899353,210.3015137,449.0899353,205.869873,446.3565369,203.135498z M303.9141541,80.4929199  l58.8461914,58.8461914L166.111908,335.9875488l-58.8461914-58.8461914L303.9141541,80.4929199z M79.0674744,432.932373  l23.0100098-141.1794434l118.1694336,118.1694336L79.0674744,432.932373z M234.85849,404.7341309l-58.8461914-58.8461914  L372.6607361,149.239502l58.8461914,58.8461914L234.85849,404.7341309z"/></svg>