<?xml version="1.0"?><svg id="icon" style="enable-background:new 0 0 512 512;" version="1.1" viewBox="0 0 512 512" xml:space="preserve" xmlns="http://www.w3.org/2000/svg" xmlns:xlink="http://www.w3.org/1999/xlink"><path d="M447.7162476,217.0584717l-43.8918457-43.8922119c-0.0024414-0.0023193-0.0042725-0.0048828-0.0065918-0.0072021  s-0.0048828-0.0041504-0.0072021-0.0064697l-64.9676514-64.9681396c-0.0009766-0.0009766-0.001709-0.0019531-0.0026855-0.0029297  s-0.0019531-0.001709-0.0029297-0.0026855l-43.8955078-43.895752c-2.7333984-2.7304688-7.1650391-2.7324219-9.9003906,0  c-2.7333984,2.734375-2.7333984,7.1660156,0,9.9003906l38.9482422,38.9484863l-93.7636719,93.7648926  c-12.12854-5.2310791-25.0244141-8.7800293-38.4570313-10.5170898  c-30.6357422-3.9619141-62.2773438,2.1601563-89.0991211,17.2402344c-1.909668,1.0732422-3.2060547,2.9785156-3.5043945,5.1484375  s0.4360352,4.3544922,1.9848633,5.9033203l88.1383057,88.1390381L64.2841187,437.8153076  c-2.7338867,2.734375-2.7338867,7.1660156,0,9.9003906c1.3666992,1.3662109,3.1582031,2.0498047,4.949707,2.0498047  s3.5830078-0.6835938,4.949707-2.0498047l125.0050049-125.0050049l88.1390381,88.1397705  c1.3222656,1.3212891,3.1064453,2.0498047,4.9501953,2.0498047c0.3164063,0,0.6347656-0.0214844,0.953125-0.0654297  c2.1699219-0.2978516,4.0751953-1.5947266,5.1484375-3.5039063c15.0800781-26.8232422,21.203125-58.4658203,17.2412109-89.0996094  c-1.7370605-13.4328613-5.2860107-26.3288574-10.5170898-38.4575195l93.7637939-93.7637939l38.9486084,38.9488525  c1.3671875,1.3662109,3.1582031,2.0498047,4.9501953,2.0498047c1.7910156,0,3.5830078-0.6835938,4.9501953-2.0498047  C450.449646,224.2244873,450.449646,219.7928467,447.7162476,217.0584717z M290.4525757,394.1756592l-86.3071289-86.3078613  c-0.0024414-0.0024414-0.0043945-0.005127-0.0068359-0.0075684s-0.005127-0.0043945-0.0075684-0.0068359l-86.3059082-86.3066406  c49.0522461-23.078125,108.3085938-13.1474609,147.0424805,25.5869141  C303.6010132,285.8670654,313.5336304,345.1239014,290.4525757,394.1756592z M298.5477905,268.5286865  c-6.3725586-11.3378906-14.3325195-21.847168-23.7807617-31.2954102  c-9.4489746-9.4484863-19.9584961-17.4084473-31.2966309-23.7811279l90.4195557-90.4197998l55.0770264,55.0771484  L298.5477905,268.5286865z"/></svg>