<?xml version="1.0"?><!DOCTYPE svg  PUBLIC '-//W3C//DTD SVG 1.1//EN'  'http://www.w3.org/Graphics/SVG/1.1/DTD/svg11.dtd'><svg height="512px" style="enable-background:new 0 0 512 512;" version="1.1" viewBox="0 0 512 512" width="512px" xml:space="preserve" xmlns="http://www.w3.org/2000/svg" xmlns:xlink="http://www.w3.org/1999/xlink"><g id="A_-_150_x2C__Dart_x2C__focus_x2C__target_x2C__dollar"><g><path d="M259.371,330.632c38.575-1.678,69.645-32.766,71.32-71.362h-12.99c-1.655,31.411-26.914,56.668-58.33,58.321V330.632z"/><path d="M301.434,259.27c-1.607,22.509-19.598,40.537-42.063,42.151v9.593c27.795-1.639,50.112-23.953,51.752-51.744H301.434z"/><path d="M259.371,148.602v26.263c42.193,1.684,76.207,35.676,77.891,77.844h26.216C361.77,196.067,316.014,150.31,259.371,148.602    z"/><path d="M259.371,210.647c22.463,1.61,40.452,19.599,42.063,42.062h9.689c-1.64-27.792-23.957-50.109-51.752-51.748V210.647z"/><path d="M259.371,181.437v12.947c31.416,1.653,56.675,26.912,58.33,58.325h12.99C329.014,214.16,297.945,183.112,259.371,181.437z    "/><path d="M210.708,252.709c1.612-22.463,19.619-40.453,42.103-42.063v-9.685c-27.791,1.64-50.105,23.956-51.745,51.748H210.708z"/><path d="M252.811,181.437c-38.597,1.674-69.684,32.722-71.362,71.272h13.041c1.654-31.413,26.911-56.671,58.322-58.325V181.437z"/><path d="M363.478,259.27h-26.216c-1.682,42.216-35.695,76.248-77.891,77.933v26.171    C316.014,361.665,361.77,315.909,363.478,259.27z"/><path d="M256.017,92.156c34.729,0,69.028,11.223,96.909,31.654l34.545-34.502c-37.215-29.403-83.732-45.554-131.411-45.554    c-52.772,0-103.105,19.36-142.126,54.594l34.299,34.3C178.032,106.511,216.18,92.156,256.017,92.156z"/><path d="M252.811,317.591c-31.411-1.653-56.668-26.91-58.322-58.321h-13.041c1.676,38.599,32.764,69.686,71.362,71.362V317.591z"/><path d="M261.469,267.471c0.916-1.004,1.369-2.28,1.369-3.645c0-1.187-0.413-2.279-1.094-3.191    c-0.729-0.817-1.959-1.547-3.645-2.004v10.752C259.469,269.111,260.651,268.473,261.469,267.471z"/><path d="M252.811,301.421c-22.486-1.612-40.495-19.641-42.104-42.151h-9.641c1.64,27.791,23.954,50.105,51.745,51.744V301.421z"/><path d="M252.811,291.801c0-1.812,1.468-3.279,3.28-3.279s3.28,1.468,3.28,3.279v3.043c18.848-1.586,33.908-16.684,35.486-35.574    h-2.996c-1.813,0-3.28-1.469-3.28-3.28s1.468-3.28,3.28-3.28h2.996c-1.582-18.844-16.643-33.904-35.486-35.486v3.044    c0,1.811-1.469,3.28-3.28,3.28s-3.28-1.469-3.28-3.28v-3.044c-18.866,1.581-33.943,16.641-35.526,35.486h2.996    c1.812,0,3.28,1.469,3.28,3.28s-1.468,3.28-3.28,3.28h-2.996c1.58,18.893,16.659,33.99,35.527,35.574V291.801z M242.604,263.733    l7.152-0.818c0.324,1.458,0.827,2.734,1.693,3.734c0.818,1.093,1.637,1.823,2.641,2.28v-11.482    c-3.556-1.004-6.196-2.552-7.881-4.649c-1.685-2.094-2.511-4.646-2.511-7.563c0-3.008,0.956-5.561,2.875-7.654    c1.863-2.004,4.414-3.191,7.517-3.462v-2.734h4.01v2.734c2.916,0.271,5.281,1.275,7.015,2.916c1.734,1.64,2.827,3.917,3.329,6.65    l-6.975,0.912c-0.453-2.188-1.546-3.645-3.369-4.375v10.753c4.463,1.187,7.469,2.645,9.113,4.557    c1.547,1.915,2.364,4.373,2.364,7.383c0,3.28-0.995,6.104-3.005,8.383c-2,2.277-4.828,3.646-8.473,4.192v5.191h-4.01v-5.103    c-3.143-0.364-5.694-1.546-7.703-3.552C244.427,270.112,243.155,267.29,242.604,263.733z"/><path d="M254.09,240.04c-1.093,0.458-1.912,1.005-2.551,1.916c-0.64,0.911-0.956,1.912-0.956,2.917c0,1,0.315,1.911,0.866,2.734    c0.591,0.817,1.458,1.457,2.641,2.004V240.04z"/><path d="M256.138,419.868c-34.739,0.002-69.022-11.236-96.876-31.701l-34.592,34.591c37.208,29.357,83.71,45.488,131.359,45.49    c0.003,0,0.006,0,0.009,0c43.225,0,84.627-12.816,119.997-37.104l-34.947-34.95C315.523,411.688,286.211,419.867,256.138,419.868z    "/><path d="M422.772,124.655l-34.501,34.502c45.453,61.875,41.766,147.013-8.838,204.69l34.299,34.298    C482.755,321.678,486.586,205.34,422.772,124.655z"/><path d="M115.934,170.997l-35.001-34.954c-52.428,76.35-49.024,178.642,8.389,251.365l34.549-34.586    C84.895,299.74,81.727,227.369,115.934,170.997z"/><path d="M252.811,148.602c-56.642,1.708-102.4,47.465-104.107,104.107h26.173c1.686-42.168,35.718-76.161,77.934-77.844V148.602z"/><path d="M252.811,363.373v-26.171c-42.217-1.684-76.249-35.716-77.934-77.933h-26.173    C150.411,315.909,196.169,361.665,252.811,363.373z"/></g></g><g id="Layer_1"/></svg>