<?xml version="1.0"?><svg xmlns="http://www.w3.org/2000/svg" xmlns:xlink="http://www.w3.org/1999/xlink" version="1.1" viewBox="0 0 24 24" style="enable-background:new 0 0 24 24;" xml:space="preserve"><style type="text/css">
	.st0{opacity:0.2;fill:none;stroke:#000000;stroke-width:0.05;stroke-miterlimit:10;}
</style><g id="Layer_1"/><g id="Layer_2"><g><path d="M7.25293,16.44141c1.65137,1.21777,2.83008,2.62891,3.50293,4.19531l0.3252,0.75781C11.23828,21.76172,11.60059,22,12,22    s0.76172-0.23828,0.91895-0.60547l0.32813-0.76465c0.69629-1.62402,1.85156-3.03223,3.33887-4.07227    c2.34668-1.64063,3.64258-4.44238,3.37988-7.3125c-0.34473-3.75293-3.30957-6.77832-7.05078-7.19434    c-2.27637-0.25391-4.55859,0.4707-6.25098,1.98633C4.9707,5.55273,4,7.72559,4,10C4,12.5332,5.21582,14.94141,7.25293,16.44141z     M7.99805,5.52734C9.1123,4.53027,10.50977,4,11.99414,4c0.23145,0,0.46484,0.0127,0.7002,0.03906    c2.75586,0.30566,5.02637,2.62305,5.2793,5.3877c0.2002,2.18945-0.74707,4.24316-2.53418,5.49219    c-1.42578,0.99707-2.59863,2.27734-3.44336,3.74805c-0.83594-1.42188-2.02832-2.70801-3.55762-3.83496    C6.88867,13.68945,6,11.92871,6,10C6,8.29395,6.72852,6.66406,7.99805,5.52734z"/><path d="M9,14h2.20313h1.59375H15c0.55273,0,1-0.44727,1-1s-0.44727-1-1-1h-0.02057C14.98578,11.93207,15,11.86646,15,11.79688    V9.26172c0-1.06543-0.43164-2.10742-1.18457-2.86035l-1.1084-1.1084c-0.39063-0.39063-1.02344-0.39063-1.41406,0l-1.1084,1.1084    C9.43164,7.1543,9,8.19629,9,9.26172v2.53516C9,11.86646,9.01422,11.93207,9.02057,12H9c-0.55273,0-1,0.44727-1,1S8.44727,14,9,14    z M11,11.79688V9.26172c0-0.53906,0.21777-1.06543,0.59863-1.44629L12,7.41406l0.40137,0.40137    C12.78223,8.19629,13,8.72266,13,9.26172v2.53516C13,11.90918,12.90918,12,12.79688,12h-1.59375    C11.09082,12,11,11.90918,11,11.79688z"/></g></g></svg>